<svg version="1.2" xmlns="http://www.w3.org/2000/svg" viewBox="0 0 180 80" width="180" height="80">
	<title>FNS-LAB-Logotype-RGB-ai</title>
	<defs>
		<linearGradient id="g1" x1="49.4" y1="68.3" x2="17.6" y2="41.5" gradientUnits="userSpaceOnUse">
			<stop offset="0" stop-color="#0078bf"/>
			<stop offset="1" stop-color="#0e4f95"/>
		</linearGradient>
		<linearGradient id="g2" x1="23" y1="47.8" x2="50.1" y2="71.8" gradientUnits="userSpaceOnUse">
			<stop offset="0" stop-color="#8d231d"/>
			<stop offset=".867" stop-color="#e31e24"/>
		</linearGradient>
		<linearGradient id="g3" x1="8" y1="15" x2="86.9" y2="15" gradientUnits="userSpaceOnUse">
			<stop offset=".007" stop-color="#edf5ff"/>
			<stop offset="1" stop-color="#bbd1f0"/>
		</linearGradient>
		<linearGradient id="g4" x1="0" y1="0" x2="0" y2="0" gradientUnits="userSpaceOnUse">
			<stop offset="0" stop-color="#0078bf"/>
			<stop offset="1" stop-color="#0e4f95"/>
		</linearGradient>
		<linearGradient id="g5" x1="-0.9" y1="32.5" x2="86.2" y2="-45.5" gradientUnits="userSpaceOnUse">
			<stop offset="0" stop-color="#edf6ff"/>
			<stop offset=".814" stop-color="#5987c4"/>
		</linearGradient>
		<linearGradient id="g6" x1="32.8" y1="46.8" x2="25.7" y2="63.4" gradientUnits="userSpaceOnUse">
			<stop offset=".228" stop-color="#e5effa"/>
			<stop offset=".867" stop-color="#a0c4e8"/>
			<stop offset=".942" stop-color="#8ab9e6"/>
			<stop offset=".999" stop-color="#77a8d9"/>
		</linearGradient>
	</defs>
	<style>
		.s0 { fill: #004691 } 
		.s1 { fill: url(#g1) } 
		.s2 { fill: url(#g2) } 
		.s3 { fill: url(#g3) } 
		.s4 { fill: url(#g4) } 
		.s5 { fill: #ffffff } 
		.s6 { fill: url(#g5) } 
		.s7 { fill: url(#g6) } 
	</style>
	<g id="Layer 1">
		<g id="&lt;Group&gt;">
			<g id="&lt;Group&gt;">
				<path id="&lt;Compound Path&gt;" fill-rule="evenodd" class="s0" d="m145.3 19.3h4v22.8h-4v-9.5h-11.2v9.5h-4v-22.8h4v9.5h11.2zm29.4 15c-1.1 5.1-4.8 7.9-10.4 7.9-7.3 0-11.5-4.2-11.5-11.6 0-7.4 4.2-11.6 11.5-11.6 5.6 0 9.3 2.8 10.4 7.9h-4.1c-0.9-2.7-2.9-3.9-6.3-3.9-5 0-7.5 2.5-7.5 7.6 0 5.2 2.5 7.7 7.5 7.7 3.4 0 5.4-1.3 6.3-4zm-28.4 27.5c0 4.7-3.1 7.3-7.7 7.3h-6.9-3.9v-22.8h16.5v3.8h-12.6v4.4c1.4 0 4.3 0 6.9 0 5.1 0 7.7 2.6 7.7 7.3zm-4 0c0-1.7-1.2-3.4-4.2-3.4h-6.4v6.8h6.4c3 0 4.2-1.7 4.2-3.4zm-15.5-31.5c0 5.9-4.2 9.1-8.1 9.1h-3.4v2.7h-4v-2.7h-3.3c-4 0-8.2-3.2-8.2-9.1 0-5.9 4.2-9.1 8.2-9.1h3.3v-1.9h4v1.9h3.4c3.9 0 8.1 3.2 8.1 9.1zm-15.5-5.1h-3.3c-1.7 0-4.2 1.4-4.2 5.1 0 2 1.1 5.1 4.2 5.1h3.3zm11.5 5.1c0-3.8-2.4-5.1-4.1-5.1h-3.4v10.1h3.4c3 0 4.1-3.1 4.1-5zm2.3 38.8h-4.4l-2.1-5.1h-10.7l-2.2 5.1h-4.3l9.7-22.8h4.4zm-8.1-8.9l-3.7-8.8-3.8 8.8zm-18.1-13.9v22.8h-3.9v-19h-8.3v10.1c0 7.6-4 8.6-7.6 8.6h-0.5v-4h0.5c2.2 0 3.6 0 3.6-4.6v-10.1-3.8z"/>
			</g>
			<g id="&lt;Group&gt;">
				<path id="&lt;Path&gt;" class="s1" d="m8 34.4v19.4h49.4l5.7-19.4z"/>
				<path id="&lt;Path&gt;" class="s2" d="m8 57.1c0 9.5 6.1 16 15.7 16l3.2 0.1h6.7l5.7-19.4h-31.3z"/>
				<path id="&lt;Path&gt;" class="s3" d="m8 46.8c1.4-7.5 7.5-12.4 16.2-12.4h57l5.7-19.4h-59.5c-5.4 0-9.9 0.4-14.1 3.7-4.1 3.2-5.3 7.5-5.3 11.7v4.8z"/>
				<path id="&lt;Path&gt;" class="s4" d=""/>
				<path id="&lt;Path&gt;" class="s5" d="m0.7 46.9c0 0 0 0.2-0.1 0.4-0.1 0.2-0.1 0.7-0.2 0.9-0.6 4 0.1 9.1 3.3 11.8 2.8 2.3 5.5 2.5 7.2 2.5 1.8 0 3.6-0.3 4.8-0.4q8.7-1.3 17.5-4.6c17.7-6.8 31.7-18.7 40.2-32.8l3.9 8.5 3.5-22.7-19.6 11.5 9.1 0.6c-7.5 11.4-19.1 21-33.6 26.5-5.1 2-10.5 3.3-15.8 4-2 0.3-4.4 0.4-6 0.5-1.6 0.2-3.9 0.2-5.4 0.2-1.4-0.1-3-0.3-4.2-0.8-0.9-0.3-1.9-1-2.7-1.7-0.1-0.2-0.7-0.8-1.1-1.5-0.4-0.7-0.6-1.4-0.7-1.7-0.1-0.5-0.1-1.2-0.1-1.2z"/>
				<path id="&lt;Path&gt;" class="s6" d="m33.4 53.5c-6.2 2.2-11.9 3.7-17.7 4.4-0.7 0.1-2.7 0.3-4.4 0.4-1.8 0-2.9-0.2-4.1-0.5-1.2-0.3-2.4-0.8-3.8-2-1.4-1.3-2-2.8-2.4-4-0.3-1.1-0.3-2.4-0.4-3.5 0-0.8 0.1-1.4 0.1-1.4q0 0 0 0.1 0 0.1-0.1 0.1 0 0 0 0 0 0.1 0 0.1 0 0.1 0 0.1 0 0.1 0 0.2 0 0 0 0-0.1 0.1-0.1 0.2 0 0 0 0.1 0 0.1 0 0.1 0 0.1 0 0.1-0.1 0.1-0.1 0.2 0 0.4-0.1 0.9 0 0.2 0 0.4 0 0.2-0.1 0.4 0 0.3 0 0.6 0 0.1 0 0.2 0 0.3 0 0.6 0 0.1 0 0.2 0 0.3 0.1 0.5 0.1 1.6 0.4 3 0.5 1.5 1.2 2.9 0.2 0.2 0.3 0.4 0.6 0.9 1.5 1.7c2.8 2.3 5.5 2.5 7.2 2.5 1 0 2-0.1 2.9-0.2q1.2-0.1 2.5-0.3 0.5-0.1 1-0.2 0.5-0.1 1-0.2 0.6-0.1 1.1-0.2 0.5-0.1 1-0.2 0.6-0.1 1.2-0.2 0.5-0.1 0.9-0.2 0.6-0.2 1.2-0.3 0.5-0.1 1-0.3 0.6-0.1 1.2-0.3 0.5-0.1 0.9-0.3 0.6-0.2 1.3-0.4 0.4-0.1 0.8-0.2 0.8-0.3 1.5-0.5 0.3-0.1 0.7-0.2 1.1-0.4 2.1-0.8c17.7-6.8 31.7-18.7 40.2-32.8l3.9 8.5 3.5-22.7c0 0-10.9 16.3-12.4 18.2-8.4 10.7-20.5 19.6-35 24.8z"/>
				<path id="&lt;Path&gt;" class="s7" d="m8 49.8v-0.6-2.2-11.8-0.9c-4.4 4.5-7.1 9.1-7.3 12.7 0 0.2 0 0.7 0.1 1.1 0.1 0.3 0.3 1 0.7 1.7 0.4 0.7 1 1.3 1.1 1.5 0.8 0.7 1.8 1.4 2.7 1.7 0.8 0.3 1.8 0.5 2.7 0.6z"/>
			</g>
		</g>
	</g>
</svg>